<?xml version="1.0" encoding="utf-8"?>
<!-- Generator: Adobe Illustrator 26.0.2, SVG Export Plug-In . SVG Version: 6.00 Build 0)  -->
<svg version="1.1" id="Layer_1" xmlns="http://www.w3.org/2000/svg" xmlns:xlink="http://www.w3.org/1999/xlink" x="0px" y="0px"
	 viewBox="0 0 24 24" style="enable-background:new 0 0 24 24;" xml:space="preserve">
<style type="text/css">
	.st0{fill:#FFC72A;}
</style>
<path class="st0" d="M8.5,12.1c0.5-0.2,1.1,0,1.3,0.5c0.2,0.5,0,1.1-0.5,1.3c0,0,0,0-0.1,0C7.9,14.5,7,15.8,7,17.3V19
	c0,0.6,0.4,1,1,1h8c0.6,0,1-0.4,1-1v-1.6c0-1.5-0.9-2.9-2.4-3.4c-0.5-0.2-0.8-0.8-0.6-1.3c0.2-0.5,0.8-0.8,1.3-0.6c0,0,0,0,0.1,0
	c2.2,0.8,3.6,2.9,3.6,5.3V19c0,1.7-1.3,3-3,3H8c-1.7,0-3-1.3-3-3v-1.7C5,15,6.4,12.9,8.5,12.1z M12,2c2.2,0,4,1.8,4,4v2
	c0,2.2-1.8,4-4,4s-4-1.8-4-4V6C8,3.8,9.8,2,12,2z M12,4c-1.1,0-2,0.9-2,2v2c0,1.1,0.9,2,2,2s2-0.9,2-2V6C14,4.9,13.1,4,12,4z"/>
</svg>
